<svg xmlns="http://www.w3.org/2000/svg" xmlns:xlink="http://www.w3.org/1999/xlink" version="1.1" id="Layer_1" x="0px" y="0px" viewBox="0 0 511.8 81.9" style="enable-background:new 0 0 511.8 81.9;" xml:space="preserve">
<style type="text/css">
	.st0{fill:#0067B1;}
	.st1{fill:#515457;}
</style>
<g>
	<rect x="374.4" y="0.1" class="st0" width="32.2" height="81.6"/>
	<path class="st0" d="M430.5,45h-17.4v22.4c0,0-0.5,13.6,12.8,14.3h16.9V59C442.8,59,442.4,45.5,430.5,45"/>
	<path class="st0" d="M430.5,38.5h-17.4V15c0,0-0.5-14.3,12.8-15h16.9v23.8C442.8,23.8,442.4,38,430.5,38.5"/>
	<path class="st0" d="M481,0.1c-30.3,0-31.5,29.1-31.5,29.1v9.4h16.3c0,0,10.4-0.5,15.2,12.1c0,0,3.7-12.2,15.9-12.2l14.8,0.1   l0.1-9.4C511.7,29.2,509.9,0.1,481,0.1"/>
	<path class="st0" d="M460.9,45h-11.4v36.9h28V62.8C477.6,62.8,478.8,45,460.9,45"/>
	<path class="st0" d="M483.5,62.8v18.9h28.1V45.1h-11.4C482.3,45.1,483.5,62.8,483.5,62.8"/>
</g>
<g>
	<path class="st1" d="M330.4,61.9c-0.5,0-0.9,0.4-0.9,1s0.4,1,0.9,1l0,0c0.6,0,0.9-0.4,0.9-1C331.3,62.3,330.9,61.9,330.4,61.9z"/>
	<path class="st1" d="M339.2,61.9c-0.5,0-0.9,0.4-0.9,1s0.4,1,0.9,1l0,0c0.6,0,0.9-0.4,0.9-1C340.2,62.3,339.8,61.9,339.2,61.9z"/>
	<rect x="11.4" y="33.8" class="st1" width="1.6" height="1.7"/>
	<rect x="25.7" y="33.8" class="st1" width="1.6" height="1.7"/>
	<path class="st1" d="M2,39.2l-0.1-5.1c0-0.5,0-0.8,0.1-1c0.2-0.3,0.4-0.4,0.9-0.4h0.9c0.1,0.8,0.5,1.4,1,1.9   c0.6,0.5,1.3,0.8,2.3,0.8c2,0,3.2-1.2,3.2-3.3c0-0.8-0.3-1.6-0.8-2.2c-0.6-0.7-1.4-1-2.5-1c-1.5,0-2.5,0.7-3,2H3.1H2.4   c-1.5,0-2.3,0.8-2.3,2.3l0.1,6H2z M6.2,30.9c0.2-0.3,0.5-0.4,0.9-0.4s0.7,0.1,1,0.4s0.5,0.8,0.5,1.3C8.6,33.3,8,34,7.3,34   c-0.4,0-0.7-0.1-1-0.4c-0.3-0.3-0.5-0.8-0.5-1.3C5.8,31.7,5.9,31.2,6.2,30.9z"/>
	<path class="st1" d="M16.3,39.2l-0.1-5.1c0-0.5,0-0.8,0.1-1c0.2-0.3,0.5-0.4,0.9-0.4h0.9c0.1,0.8,0.4,1.4,1,1.9s1.3,0.8,2.3,0.8   c2,0,3.2-1.2,3.2-3.3c0-0.8-0.3-1.6-0.8-2.2c-0.6-0.7-1.4-1-2.5-1c-1.5,0-2.5,0.7-3,2h-0.9h-0.7c-1.5,0-2.3,0.8-2.3,2.3l0.1,6H16.3   z M20.5,30.9c0.2-0.3,0.6-0.4,0.9-0.4c0.4,0,0.7,0.1,1,0.4s0.5,0.8,0.5,1.3c0,1.1-0.6,1.8-1.3,1.8c-0.4,0-0.7-0.1-0.9-0.4   c-0.3-0.3-0.5-0.8-0.5-1.3C20.1,31.7,20.2,31.2,20.5,30.9z"/>
	<rect x="33" y="26" class="st1" width="1.7" height="1.8"/>
	<path class="st1" d="M36.2,30.7c-0.7-1-1.8-1.5-3.2-1.5v1.6c0.5,0,0.9,0.2,1.4,0.7c0.6,0.6,0.9,1.3,1,2.3h-4.8l-0.9,1.7h7.7   C37.4,33.4,37,31.8,36.2,30.7z"/>
	<rect x="46.8" y="18.6" class="st1" width="2.6" height="2.7"/>
	<rect x="50.7" y="18.6" class="st1" width="2.6" height="2.7"/>
	<path class="st1" d="M72.7,32.8c-1.9,0-3.1-1-3.1-2.7c0-1.2,0.8-2,2-2c0.8,0,1.4,0.3,2,1l1.5-2.1c-0.9-1.2-2.2-1.8-3.8-1.8   c-1.2,0-2.3,0.3-3.1,1.1c-1,0.8-1.5,1.9-1.5,3.3c0,0.9,0.2,1.7,0.6,2.4c0.1,0.3,0.3,0.6,0.6,0.8H64h-0.5h-5.3l0,0h-2.8   c-0.7,0-1.1-0.5-1.1-1.4v-7.7h-2.8v1h-0.1c-0.6-0.8-1.5-1.2-2.6-1.2c-1,0-1.8,0.4-2.5,1.1c-0.9,0.9-1.4,2.2-1.4,3.9   c0,2.6,1.1,3.9,3.2,3.9h3.4c0,2,1,2.9,2.9,2.9h3.3h0.5h5.3H64h12.5l-1-2.7h-2.8V32.8z M49,29.9c-0.8,0-1.3-0.4-1.3-1.3   c-0.1-1.4,0.5-2.2,1.7-2.2c0.8,0,1.4,0.4,2,1.3v2.2H49z"/>
	<polygon class="st1" points="82.8,17.9 80,17.9 80.1,35.5 83,35.5  "/>
	<path class="st1" d="M82.5,39.1c0.8,1,1.4,1.7,1.8,2.3c2.1-0.2,3.9-1,5.1-2.6c1.3-1.6,2-3.5,2-5.8l-0.1-7.4h-2.9l0.1,7.7   c0,1.7-0.6,3.2-1.8,4.3C85.6,38.6,84.2,39.1,82.5,39.1z"/>
	<rect x="96.9" y="20.6" class="st1" width="2.6" height="2.7"/>
	<path class="st1" d="M139.4,24.9c0-3.4,0-5.8-0.1-7h-2.8c0,1.3,0,3.5,0,6.5c0,2.7,0.1,4.8,0.1,6.5c0,1.2-0.8,1.9-1.9,1.9h-1.3h-0.5   h-1.5c-1.1,0-2.3-1.3-2.3-3c0-0.8-0.1-9.9-0.1-12h-2.9l0.1,13.1c0,1.1-1.1,1.9-2.3,1.9h-1.5h-0.5h-5.2h-0.5H111h-0.5h-5.2l0,0h-3   c-1.1,0-2.2-1.2-2.4-2.7v-4.5H97v7.7c0,3.4-2.5,5.8-6,5.9c0.8,1,1.4,1.7,1.8,2.3c4-0.3,6.8-3.3,7.1-7.6c0.6,1.1,1.5,1.7,2.5,1.7   h2.3h0.5h5.2h0.5h5.2h0.5h5.2h0.5h2.5c1.5,0,2.9-0.9,3.4-2.2c0.4,1.2,1.6,2.2,2.7,2.2h1.8h0.5h2.4c2.4,0,3.7-1.4,3.7-3.5   C139.4,30.2,139.4,27.9,139.4,24.9z"/>
	<rect x="157.1" y="22.8" class="st1" width="2.6" height="2.7"/>
	<rect x="153.2" y="22.8" class="st1" width="2.6" height="2.7"/>
	<path class="st1" d="M170.2,35.5h5.2h0.5h5.2h0.5h3.8c2.4,0,3.6-1.4,3.6-3.5c0,0,0-2.1-0.1-6.4H186c0,0.7,0,1.6,0.1,2.7   c0,0.7,0,1.6,0,2.7c0,1.2-0.8,1.9-1.8,1.9h-3.2l0,0h-5.2h-0.4h-5.2l0,0h-2.5c-0.5,0-1-0.2-1.5-0.8s-0.8-1.3-0.8-2.3   c0-1.9,0-3.3-0.1-4.2h-2.9l0.1,5.8c0,1-0.4,1.5-1.1,1.5h-6.9c-1.7,0-2.9-0.8-3.7-2.5c-0.6-1.3-0.9-2.9-0.9-4.8h-2.8   c-0.1,2.6,0.4,4.8,1.4,6.6c1.3,2.2,3.3,3.3,6,3.3h8.4c1.3,0,2.2-0.6,2.5-1.8c0.6,1.2,1.5,1.8,2.6,1.8h1.8H170.2z"/>
	<rect x="181.2" y="36.8" class="st1" width="2.6" height="2.7"/>
	<rect x="185.1" y="36.8" class="st1" width="2.6" height="2.7"/>
	<path class="st1" d="M241.8,31.9c0-1.7,0-4.1-0.1-7c0-3.4,0-5.8,0-7h-2.9c0,1.3,0,3.5,0.1,6.5c0,2.7,0.1,4.8,0.1,6.5   c0,1.2-0.8,1.9-1.8,1.9h-1.3h-0.5H231c-0.7-4.9-3.2-7.3-7.4-7.3l3.8-3.7l-2-2l-7.3,7.4l1.1,2.2c1.3-0.8,2.7-1.3,4-1.3   s2.4,0.4,3.3,1.1c1,0.8,1.6,2,1.8,3.5h-10.5h-0.5h-5.2h-0.5h-5.2l0,0h-3.6v-3c0-2.6-1.7-4.3-4.7-4.3c-2.8,0-5.1,2-5.1,5.1   c0,2.6,1.8,4.9,4.5,4.9h1.9c-0.9,2.3-3,3.6-5.5,3.6c0.8,1,1.4,1.7,1.8,2.3c3.5-0.3,5.9-2.5,6.8-5.9h3.4l0,0h5.8h0.5h5.2h0.5h17.7   h0.5h2.4C240.5,35.5,241.8,34.1,241.8,31.9z M197.6,32.8c-1.1,0-2.1-1.1-2.1-2.4c0-1.8,1-3,2.2-3c0.9,0,1.8,1.1,1.8,1.7   c0,0.2,0,1.4,0,3.7H197.6z"/>
	<polygon class="st1" points="248.3,35.5 248.2,17.9 245.4,17.9 245.5,35.5  "/>
	<rect x="258" y="18.6" class="st1" width="2.6" height="2.7"/>
	<rect x="262" y="18.6" class="st1" width="2.6" height="2.7"/>
	<path class="st1" d="M298.6,28.6c-1.3-2-3.3-3-6-3l3.7-3.7l-2-2l-7.3,7.4l1.1,2.2c1.3-0.8,2.7-1.3,4-1.3s2.4,0.4,3.3,1.1   c1,0.8,1.6,2,1.8,3.5h-11.1l0,0h-5.2h-0.5h-5.2h-0.5h-5.2l0,0h-2.8c-0.7,0-1.1-0.5-1.1-1.4v-7.7h-2.9v1h-0.1   c-0.6-0.8-1.5-1.2-2.6-1.2c-0.9,0-1.8,0.4-2.5,1.1c-0.9,0.9-1.4,2.2-1.4,3.9c0,2.6,1.1,3.9,3.2,3.9h3.4c0,2,0.9,2.9,2.9,2.9h3.3   h0.5h5.2h0.5h5.2h0.5h5.2h0.5H300C300.2,32.6,299.7,30.3,298.6,28.6z M260.3,29.9c-0.8,0-1.3-0.4-1.3-1.3c-0.1-1.4,0.5-2.2,1.7-2.2   c0.8,0,1.4,0.4,2,1.3v2.2H260.3z"/>
	<rect x="335.5" y="17" class="st1" width="2.6" height="2.7"/>
	<path class="st1" d="M341.6,35.8c2.6-0.1,3.9-1.5,3.9-4.5v-5.8h-3c0,3.9,0,5.8,0,5.7c0,1.2-0.5,1.8-1.7,1.8c-0.7,0-1.3-0.2-1.8-0.7   c-0.5-0.5-0.8-1.3-0.8-2.3c0-1.7,0-2.9,0-3.7h-2.9c0,2.9,0,4.5,0,4.9c0,1.2-0.5,1.8-1.7,1.8c-0.7,0-1.3-0.2-1.8-0.7   c-0.5-0.5-0.7-1.1-0.8-1.9v-0.1v-3.9h-2.9c0,0.7,0,2.8,0.1,6.5h-3.5l0,0h-5.3h-0.5h-5.2h-0.5h-2.5c-1.1,0-2.2-1.2-2.4-2.7v-4.5   h-2.9v7.7c0,3.4-2.5,5.8-6,5.9c0.8,1,1.4,1.7,1.8,2.3c4-0.3,6.8-3.3,7.1-7.6c0.6,1.1,1.5,1.7,2.5,1.7h2.3l0,0h5.8h0.5h5.2h0.5h5.8   v-1c0.8,1,1.8,1.4,3.2,1.4c1.7,0,2.9-0.8,3.5-2.1C338.7,35.2,339.9,35.9,341.6,35.8z"/>
	<rect x="337.5" y="20.6" class="st1" width="2.6" height="2.7"/>
	<rect x="333.5" y="20.6" class="st1" width="2.6" height="2.7"/>
	<path class="st1" d="M12.8,46.3H8.9l-4.5,6c-0.4,0.6-0.8,1.2-1.2,1.9H3.1v-7.9H0v17.2h3.1v-6l1.5-1.8l4.9,7.9h3.7l-6.3-9.9   L12.8,46.3z"/>
	<path class="st1" d="M25.5,51.1h-3.1v7.5c0,0.4-0.1,0.7-0.2,1c-0.3,0.8-1.1,1.7-2.4,1.7c-1.7,0-2.3-1.3-2.3-3.4v-6.7h-3.1v7.3   c0,4,2.1,5.4,4.3,5.4s3.4-1.3,4-2.2l0,0l0.2,1.9h2.8c-0.1-1-0.1-2.2-0.1-3.7L25.5,51.1L25.5,51.1z"/>
	<path class="st1" d="M41.5,56.6c-0.3,1.5-0.6,2.8-0.8,4.2h-0.1c-0.3-1.3-0.6-2.7-1-4.2l-1.5-5.5h-2.6l-1.6,5.7   c-0.3,1.3-0.8,2.6-1,4h-0.1c-0.2-1.3-0.5-2.7-0.8-4l-1.3-5.6h-3.2l3.7,12.4h2.9l1.6-5c0.4-1.2,0.7-2.4,0.9-4l0,0   c0.3,1.5,0.6,2.7,0.9,4l1.5,5h2.9l3.9-12.4h-3.1L41.5,56.6z"/>
	<path class="st1" d="M57.4,56c0-2.7-1.1-5.2-5.1-5.2c-2,0-3.6,0.5-4.5,1.1l0.6,2c0.8-0.5,2.1-0.9,3.3-0.9c2.2,0,2.5,1.3,2.5,2.2   v0.2c-4.6,0-7.4,1.6-7.4,4.7c0,1.9,1.4,3.7,3.9,3.7c1.6,0,2.9-0.7,3.7-1.7h0.1l0.2,1.4h2.8c-0.1-0.8-0.2-1.9-0.2-3L57.4,56L57.4,56   z M54.4,59.1c0,0.2,0,0.5-0.1,0.7c-0.3,0.9-1.2,1.7-2.4,1.7c-1,0-1.8-0.6-1.8-1.8c0-1.9,2.1-2.4,4.3-2.3V59.1z"/>
	<path class="st1" d="M62.3,45.9c-1,0-1.8,0.7-1.8,1.7c0,0.9,0.7,1.7,1.7,1.7c1.1,0,1.8-0.7,1.8-1.7C64,46.7,63.4,45.9,62.3,45.9z"/>
	<rect x="60.7" y="51.1" class="st1" width="3.2" height="12.4"/>
	<path class="st1" d="M70.8,47.9l-3.1,0.9v2.3h-1.8v2.3h1.8v5.8c0,1.6,0.3,2.8,1,3.5c0.6,0.6,1.6,1,2.7,1c1,0,1.8-0.2,2.3-0.3V61   c-0.4,0.1-0.6,0.2-1.2,0.2c-1.2,0-1.6-0.8-1.6-2.3v-5.5h3v-2.3h-3L70.8,47.9L70.8,47.9z"/>
	<path class="st1" d="M85.8,46.3l-5.5,17.2h3.2l1.5-4.9h5.5l1.6,4.9h3.4l-5.6-17.2H85.8z M85.5,56.3l1.3-4.2c0.3-1,0.6-2.2,0.8-3.2   l0,0c0.3,1,0.5,2.2,0.9,3.2l1.3,4.2H85.5z"/>
	<path class="st1" d="M105.8,52.7L105.8,52.7c-0.6-1-1.8-1.9-3.7-1.9c-3,0-5.6,2.5-5.6,6.5c0,3.5,2.2,6.1,5.3,6.1   c1.6,0,2.9-0.7,3.6-1.8l0,0v1.1c0,2.7-1.5,3.7-3.6,3.7c-1.5,0-2.8-0.5-3.6-0.9l-0.7,2.4c1.1,0.7,2.8,1,4.3,1c1.7,0,3.5-0.4,4.8-1.5   c1.3-1.2,1.8-3,1.8-5.6v-7c0-1.7,0.1-2.7,0.1-3.6h-2.7L105.8,52.7z M105.4,58.1c0,0.4,0,0.8-0.1,1.1c-0.4,1.1-1.4,1.9-2.5,1.9   c-2,0-3-1.7-3-3.8c0-2.5,1.3-4.1,3.1-4.1c1.3,0,2.2,0.9,2.5,2c0.1,0.3,0.1,0.6,0.1,0.8v2.1H105.4z"/>
	<path class="st1" d="M114.6,53.5h-0.1l-0.1-2.4h-2.7c0.1,1.1,0.1,2.3,0.1,4v8.4h3.1v-6.4c0-0.4,0-0.7,0.1-1   c0.3-1.4,1.3-2.4,2.8-2.4c0.4,0,0.7,0,0.9,0.1v-3c-0.3-0.1-0.4-0.1-0.7-0.1C116.7,50.8,115.2,51.7,114.6,53.5z"/>
	<path class="st1" d="M122.4,45.9c-1,0-1.8,0.7-1.8,1.7c0,0.9,0.7,1.7,1.7,1.7c1.1,0,1.8-0.7,1.8-1.7   C124.2,46.7,123.5,45.9,122.4,45.9z"/>
	<rect x="120.9" y="51.1" class="st1" width="3.2" height="12.4"/>
	<path class="st1" d="M133.6,53.3c1.1,0,1.9,0.3,2.4,0.5l0.6-2.3c-0.7-0.3-1.9-0.6-3-0.6c-4.4,0-6.9,2.9-6.9,6.6   c0,3.8,2.5,6.3,6.4,6.3c1.6,0,2.9-0.4,3.5-0.7l-0.4-2.3c-0.6,0.3-1.4,0.5-2.5,0.5c-2.1,0-3.8-1.5-3.8-4   C129.8,55,131.2,53.3,133.6,53.3z"/>
	<path class="st1" d="M149.9,51.1h-3.1v7.5c0,0.4-0.1,0.7-0.2,1c-0.3,0.8-1.1,1.7-2.4,1.7c-1.7,0-2.3-1.3-2.3-3.4v-6.7h-3.1v7.3   c0,4,2.1,5.4,4.3,5.4c2.2,0,3.4-1.3,4-2.2h0.1l0.2,1.9h2.8c-0.1-1-0.1-2.2-0.1-3.7v-8.8H149.9z"/>
	<rect x="153.3" y="45.4" class="st1" width="3.2" height="18.1"/>
	<path class="st1" d="M163.4,47.9l-3.1,0.9v2.3h-1.8v2.3h1.8v5.8c0,1.6,0.3,2.8,1,3.5c0.6,0.6,1.5,1,2.7,1c1,0,1.8-0.2,2.3-0.3V61   c-0.4,0.1-0.6,0.2-1.2,0.2c-1.2,0-1.6-0.8-1.6-2.3v-5.5h3v-2.3h-3L163.4,47.9L163.4,47.9z"/>
	<path class="st1" d="M179.9,51.1h-3.1v7.5c0,0.4-0.1,0.7-0.2,1c-0.3,0.8-1.1,1.7-2.4,1.7c-1.7,0-2.3-1.3-2.3-3.4v-6.7h-3.1v7.3   c0,4,2.1,5.4,4.3,5.4c2.2,0,3.4-1.3,4-2.2l0,0l0.2,1.9h2.7c0-1-0.1-2.2-0.1-3.7V51.1z"/>
	<path class="st1" d="M186.1,53.5H186l-0.1-2.4h-2.7c0.1,1.1,0.1,2.3,0.1,4v8.4h3.1v-6.4c0-0.4,0.1-0.7,0.1-1   c0.3-1.4,1.3-2.4,2.8-2.4c0.4,0,0.7,0,0.9,0.1v-3c-0.3-0.1-0.4-0.1-0.7-0.1C188.1,50.8,186.7,51.7,186.1,53.5z"/>
	<path class="st1" d="M197.4,50.8c-4,0-6.1,3.2-6.1,6.7c0,3.8,2.4,6.3,6.4,6.3c1.8,0,3.3-0.4,4.3-0.8l-0.5-2.2   c-0.9,0.4-2,0.6-3.4,0.6c-2,0-3.7-1-3.8-3.2h8.3c0-0.3,0.1-0.7,0.1-1.3C202.7,54.1,201.4,50.8,197.4,50.8z M194.3,56   c0.1-1.3,0.9-3,2.9-3c2.1,0,2.6,1.9,2.6,3H194.3z"/>
	<path class="st1" d="M219,48.6c1.4,0,2.5,0.3,3.4,0.7l0.7-2.5c-0.6-0.3-2.1-0.8-4.2-0.8c-5.3,0-9.2,3.4-9.2,9.1   c0,5.2,3.3,8.7,8.8,8.7c2.1,0,3.7-0.4,4.4-0.8l-0.5-2.5c-0.8,0.4-2.1,0.6-3.4,0.6c-3.8,0-6-2.4-6-6.2C213,50.8,215.5,48.6,219,48.6   z"/>
	<path class="st1" d="M230.7,50.8c-3.7,0-6.4,2.5-6.4,6.6c0,4,2.7,6.4,6.2,6.4c3.2,0,6.4-2,6.4-6.6   C236.8,53.4,234.4,50.8,230.7,50.8z M230.6,61.5c-1.9,0-3.1-1.8-3.1-4.2c0-2.1,0.9-4.2,3.1-4.2c2.1,0,3,2.2,3,4.2   C233.6,59.8,232.4,61.5,230.6,61.5z"/>
	<path class="st1" d="M253.5,50.8c-1,0-1.8,0.3-2.5,0.7c-0.6,0.4-1.1,0.9-1.5,1.5l0,0c-0.5-1.4-1.8-2.3-3.4-2.3   c-2.1,0-3.2,1.1-3.8,2.1h-0.1l-0.1-1.8h-2.7c0.1,1.1,0.1,2.3,0.1,3.7v8.7h3.1v-7.3c0-0.4,0-0.7,0.2-1c0.3-0.9,1.1-1.8,2.2-1.8   c1.5,0,2.1,1.2,2.1,3v7.2h3.1v-7.4c0-0.4,0.1-0.7,0.2-1c0.3-0.9,1.1-1.7,2.2-1.7c1.5,0,2.2,1.2,2.2,3.3v6.9h3.1v-7.3   C257.7,52.2,255.6,50.8,253.5,50.8z"/>
	<path class="st1" d="M268.1,50.8c-1.9,0-3.3,0.8-4.3,2.2l0,0l-0.2-1.9h-2.7c0,1.2,0.1,2.5,0.1,4.1v13.3h3.1v-6.4h0.1   c0.6,1,1.9,1.7,3.5,1.7c2.8,0,5.7-2.2,5.7-6.7C273.3,53.3,271,50.8,268.1,50.8z M267,61.4c-1.3,0-2.4-0.9-2.7-2.2   c-0.1-0.3-0.1-0.6-0.1-0.9v-1.9c0-0.3,0.1-0.5,0.1-0.8c0.3-1.4,1.5-2.3,2.8-2.3c2,0,3.1,1.8,3.1,4C270.1,59.7,269,61.4,267,61.4z"/>
	<path class="st1" d="M285.5,56c0-2.7-1.1-5.2-5.1-5.2c-2,0-3.6,0.5-4.5,1.1l0.6,2c0.8-0.5,2.1-0.9,3.3-0.9c2.2,0,2.5,1.3,2.5,2.2   v0.2c-4.6,0-7.4,1.6-7.4,4.7c0,1.9,1.4,3.7,3.9,3.7c1.6,0,2.9-0.7,3.7-1.7h0.1l0.2,1.4h2.8c-0.1-0.8-0.2-1.9-0.2-3V56H285.5z    M282.5,59.1c0,0.2,0,0.5-0.1,0.7c-0.3,0.9-1.2,1.7-2.4,1.7c-1,0-1.8-0.6-1.8-1.8c0-1.9,2.1-2.4,4.3-2.3V59.1z"/>
	<path class="st1" d="M295.6,50.8c-2.1,0-3.4,1.2-3.9,2.1h-0.1l-0.1-1.9h-2.8c0.1,1.1,0.1,2.3,0.1,3.7v8.7h3.2v-7.3   c0-0.4,0-0.7,0.1-1c0.3-0.9,1.2-1.8,2.4-1.8c1.7,0,2.4,1.4,2.4,3.1v7h3.1V56C300.1,52.2,297.8,50.8,295.6,50.8z"/>
	<path class="st1" d="M308.6,57.7c-0.2,0.8-0.5,1.7-0.7,2.4h-0.1c-0.2-0.7-0.4-1.7-0.7-2.4l-2.2-6.7h-3.4l4.5,11.4   c0.1,0.3,0.2,0.5,0.2,0.6c0,0.2-0.1,0.3-0.2,0.6c-0.4,0.8-1.1,1.6-1.7,2c-0.6,0.5-1.3,0.7-1.8,0.9l0.7,2.6c0.8-0.1,2.1-0.5,3.3-1.6   c1.5-1.3,2.6-3.3,4.3-8l3.1-8.5h-3.4L308.6,57.7z"/>
	<path class="st1" d="M327,59c-0.2,1-0.4,1.9-0.6,2.8l0,0c-0.1-0.9-0.3-1.8-0.5-2.8l-0.8-3.8h-1.6l-0.9,3.7c-0.2,1-0.5,2-0.6,2.9   l0,0c-0.1-0.8-0.3-1.9-0.5-2.9l-0.8-3.7h-1.6l2,8.2h1.6l1-3.9c0.2-0.9,0.4-1.7,0.5-2.6l0,0c0.1,0.9,0.2,1.7,0.5,2.6l0.9,3.9h1.6   l2.2-8.2h-1.5L327,59z"/>
	<polygon class="st1" points="334.1,55.3 332.5,55.3 332.5,63.5 337.4,63.5 337.4,62.2 334.1,62.2  "/>
	<polygon class="st1" points="342.9,62.2 342.9,55.3 341.4,55.3 341.4,63.5 346.3,63.5 346.3,62.2  "/>
</g>
</svg>